<svg xmlns="http://www.w3.org/2000/svg" viewBox="0 0 875.58 542.31"><defs><style>.cls-1{font-size:225.81px;}.cls-1,.cls-2,.cls-3,.cls-5{fill:#fff;}.cls-1,.cls-2,.cls-3{font-family:Michroma-Regular, Michroma;}.cls-2{font-size:292.05px;}.cls-3{font-size:292.02px;}.cls-4{fill:#8cbc3f;}</style></defs><g id="Layer_2" data-name="Layer 2"><g id="Layer_1-2" data-name="Layer 1"><g id="Version4_Copy" data-name="Version4 Copy"><text class="cls-1" transform="translate(156.39 257.29) scale(0.99 1)">d</text><text class="cls-2" transform="translate(327.13 255.54) scale(0.77 1)">a</text><text class="cls-1" transform="translate(478.2 257.29) scale(1.28 1)">l</text><text class="cls-3" transform="translate(547.35 255.52) scale(0.77 1)">e</text><path class="cls-4" d="M775.68,352.11c-70.57,114.22-196,190.2-339,190.2s-268.44-76-339-190.2h60.65c63.85,84.91,164.78,139.7,278.36,139.7S651.21,437,715.05,352.11Z"/><path class="cls-5" d="M57.63,282.43a403.85,403.85,0,0,0-12.25,40.41H0V282.43Z"/><path class="cls-4" d="M777.92,322.84H97.66a350.07,350.07,0,0,1,14.21-40.41H763.71A352,352,0,0,1,777.92,322.84Z"/><path class="cls-5" d="M875.58,282.43v40.41H830.19A401.2,401.2,0,0,0,818,282.43Z"/></g></g></g></svg>